{"title":"Super 8 2011 720p TS XViD - DTRG - SAFCuk009","uid":6471113,"size":2117897414,"categoryP":"video","categoryS":"handheld","magnet":"?xt=urn:btih:f66fa3501888baa7b31a28d11cb8380e7c5ccc2e&amp;dn=Super+8+2011+720p+TS+XViD+-+DTRG+-+SAFCuk009&amp;tr=udp%3A%2F%2Ftracker.openbittorrent.com%3A80&amp;tr=udp%3A%2F%2Fopen.demonii.com%3A1337&amp;tr=udp%3A%2F%2Ftracker.coppersurfer.tk%3A6969&amp;tr=udp%3A%2F%2Fexodus.desync.com%3A6969","seeders":1,"leechers":0,"uploader":"SAFCukO09","files":5,"time":1308144173,"description":"Format/Info : Audio Video Interleave\nFile size : 1.94 GiB\nDuration : 1h 41mn\nOverall bit rate : 2 729 Kbps\nWriting library : VirtualDub build 32839/release\n\nVideo\nID : 0\nFormat : MPEG-4 Visual\nFormat profile : Advanced Simple@L5\nFormat settings, BVOP : 2\nFormat settings, QPel : No\nFormat settings, GMC : No warppoints\nFormat settings, Matrix : Default (H.263)\nMuxing mode : Packed bitstream\nCodec ID : XVID\nCodec ID/Hint : XviD\nDuration : 1h 41mn\nBit rate : 2 591 Kbps\nWidth : 1 280 pixels\nHeight : 544 pixels\nDisplay aspect ratio : 2.35:1\nFrame rate : 23.976 fps\nColor space : YUV\nChroma subsampling : 4:2:0\nBit depth : 8 bits\nScan type : Progressive\nCompression mode : Lossy\nBits/(Pixel*Frame) : 0.155\nStream size : 1.84 GiB (95%)\nWriting library : XviD 63\n\nAudio\nID : 1\nFormat : MPEG Audio\nFormat version : Version 1\nFormat profile : Layer 3\nCodec ID : 55\nCodec ID/Hint : MP3\nDuration : 1h 41mn\nBit rate mode : Constant\nBit rate : 128 Kbps\nChannel(s) : 2 channels\nSampling rate : 44.1 KHz\nCompression mode : Lossy\nStream size : 93.3 MiB (5%)\nAlignment : Split accross interleaves\nInterleave, duration : 42 ms (1.00 video frame)\nInterleave, preload duration : 500 ms\n\n\n\n &lt;a href=&quot;\nhttp://www.imdb.com/title/tt1650062/&quot; rel=&quot;nofollow&quot; target=&quot;_NEW&quot;&gt;\nhttp://www.imdb.com/title/tt1650062/&lt;/a&gt;\n\n\n\n\n89524873606771859129.png\n\n\nUsers: 8.1/10 (8,827 votes) 209 reviews | Critics: 40 reviews Metascore: 72/100 (based on 40 reviews from Metacritic.com)\n\nAfter witnessing a mysterious train crash, a group of friends in the summer of 1979 begin noticing strange happenings going around in their small town, and begin to investigate into the creepy phenomenon.\nDirector:\nJ.J. Abrams\nWriter:\nJ.J. Abrams\nStars:\nElle Fanning, Amanda Michalka and Kyle Chandler\n\n\n\n95521316153253938506.png\n\n\n\n\nvlcsnap2011061506h37m40.png\n\nvlcsnap2011061506h34m56.png\n\nvlcsnap2011061506h35m25.png\n\nvlcsnap2011061506h36m52.png\n\nvlcsnap2011061506h40m09.png\n\nvlcsnap2011061506h36m18.png\n\n\n\n\nSource Used\n\nIMAGiNE 720P ..........Thanks\n\n\n1st ever go at a 720p TS but really the hard parts already done by them guys (you know who ) but i decided to have a go and put my throw of it in the hat.\n\nTried different filters compared to the regular release i did .Included 2 samples one dark scene one light ...\n\nRgb colours slightly changed ,slight smoother ,output leveles changed and slight lowering of saturation\n\nEnjoy !\n\n\nGreetz to IMAGiNE,Flawl3ss,DiLLoN,BDK,NOiR,TOXiC,THC,Ez,Rx,Boobyblue,TaRiQ786,LKRG,EP1C\n","torrent":{"xt":"urn:btih:f66fa3501888baa7b31a28d11cb8380e7c5ccc2e","amp;dn":"Super+8+2011+720p+TS+XViD+-+DTRG+-+SAFCuk009","amp;tr":["udp%3A%2F%2Ftracker.openbittorrent.com%3A80","udp%3A%2F%2Fopen.demonii.com%3A1337","udp%3A%2F%2Ftracker.coppersurfer.tk%3A6969","udp%3A%2F%2Fexodus.desync.com%3A6969"],"infoHash":"f66fa3501888baa7b31a28d11cb8380e7c5ccc2e","infoHashBuffer":{"type":"Buffer","data":[246,111,163,80,24,136,186,167,179,26,40,209,28,184,56,14,124,92,204,46]},"announce":[],"urlList":[]}}